<svg xmlns="http://www.w3.org/2000/svg" width="28" height="28" viewBox="6 -4 30 29" fill-rule="evenodd">
  <path d="M20 11.0003C24.5494 11.0003 28.25 14.7013 28.25 19.2503L27.333 20.1663H12.667L11.75 19.2503C11.75 14.7013 15.451 11.0003 20 11.0003ZM20 12.8333C16.7733 12.8333 14.0944 15.2281 13.6484 18.3333H26.3516C25.9056 15.2282 23.227 12.8334 20 12.8333ZM20 1.83331C22.2742 1.83331 24.125 3.68361 24.125 5.95831C24.125 8.23302 22.2743 10.0833 20 10.0833C17.7257 10.0833 15.875 8.23302 15.875 5.95831C15.875 3.68361 17.7258 1.83331 20 1.83331ZM20 3.66632C18.7364 3.66632 17.708 4.69471 17.708 5.95831C17.708 7.22194 18.7364 8.25031 20 8.25031C21.2636 8.25031 22.292 7.22194 22.292 5.95831C22.292 4.69471 21.2636 3.66632 20 3.66632Z" fill="#003670"/>
</svg>
